<svg width="220" height="220" viewBox="0 0 220 220" fill="none" xmlns="http://www.w3.org/2000/svg">
<circle cx="110" cy="110" r="110" fill="#0A7A42" fill-opacity="0.25"/>
<path d="M138 93.3333H129.667V89.1667C129.667 86.9565 128.789 84.8369 127.226 83.2741C125.663 81.7113 123.543 80.8333 121.333 80.8333H79.6667C77.4565 80.8333 75.3369 81.7113 73.7741 83.2741C72.2113 84.8369 71.3333 86.9565 71.3333 89.1667V130.833H79.6667C79.6667 132.475 79.99 134.1 80.6182 135.617C81.2464 137.133 82.1671 138.511 83.3278 139.672C84.4886 140.833 85.8666 141.754 87.3831 142.382C88.8997 143.01 90.5251 143.333 92.1667 143.333C93.8082 143.333 95.4336 143.01 96.9502 142.382C98.4668 141.754 99.8448 140.833 101.006 139.672C102.166 138.511 103.087 137.133 103.715 135.617C104.343 134.1 104.667 132.475 104.667 130.833H121.333C121.333 134.149 122.65 137.328 124.994 139.672C127.339 142.016 130.518 143.333 133.833 143.333C137.149 143.333 140.328 142.016 142.672 139.672C145.016 137.328 146.333 134.149 146.333 130.833H154.667V110L138 93.3333ZM92.1667 137.083C91.3456 137.083 90.5327 136.921 89.7743 136.607C89.0158 136.292 88.3268 135.831 87.7464 135.251C87.166 134.67 86.7057 133.981 86.3918 133.222C86.0778 132.463 85.9164 131.65 85.9167 130.829C85.9169 130.008 86.0789 129.195 86.3934 128.437C86.7078 127.678 87.1686 126.989 87.7493 126.409C88.3301 125.829 89.0195 125.368 89.7781 125.054C90.5368 124.74 91.3498 124.579 92.1708 124.579C93.829 124.58 95.419 125.239 96.5911 126.412C97.7632 127.585 98.4214 129.175 98.4208 130.833C98.4203 132.491 97.7611 134.082 96.5882 135.254C95.4153 136.426 93.8248 137.084 92.1667 137.083ZM79.6667 118.333V89.1667H121.333V118.333H79.6667ZM133.833 137.083C133.012 137.083 132.199 136.921 131.441 136.607C130.682 136.292 129.993 135.831 129.413 135.251C128.833 134.67 128.372 133.981 128.058 133.222C127.745 132.463 127.583 131.65 127.583 130.829C127.584 130.008 127.746 129.195 128.06 128.437C128.374 127.678 128.835 126.989 129.416 126.409C129.997 125.829 130.686 125.368 131.445 125.054C132.203 124.74 133.016 124.579 133.837 124.579C135.496 124.58 137.086 125.239 138.258 126.412C139.43 127.585 140.088 129.175 140.087 130.833C140.087 132.491 139.428 134.082 138.255 135.254C137.082 136.426 135.491 137.084 133.833 137.083Z" fill="white"/>
</svg>
