<svg width="48" height="40" viewBox="0 0 48 40" fill="none" xmlns="http://www.w3.org/2000/svg">
<rect x="0.5" y="0.5" width="47" height="39" rx="4.5" fill="#5A28D9" fill-opacity="0.1"/>
<rect x="0.5" y="0.5" width="47" height="39" rx="4.5" stroke="#5A28D9"/>
<path d="M32.1053 28.1053C32.887 28.1053 33.6366 28.4158 34.1894 28.9685C34.7421 29.5213 35.0526 30.2709 35.0526 31.0526C35.0526 31.8343 34.7421 32.584 34.1894 33.1367C33.6366 33.6895 32.887 34 32.1053 34C31.3236 34 30.5739 33.6895 30.0212 33.1367C29.4684 32.584 29.1579 31.8343 29.1579 31.0526C29.1579 30.2709 29.4684 29.5213 30.0212 28.9685C30.5739 28.4158 31.3236 28.1053 32.1053 28.1053ZM32.1053 29.5789C31.7144 29.5789 31.3396 29.7342 31.0632 30.0106C30.7868 30.2869 30.6316 30.6618 30.6316 31.0526C30.6316 31.4435 30.7868 31.8183 31.0632 32.0947C31.3396 32.3711 31.7144 32.5263 32.1053 32.5263C32.4961 32.5263 32.8709 32.3711 33.1473 32.0947C33.4237 31.8183 33.5789 31.4435 33.5789 31.0526C33.5789 30.6618 33.4237 30.2869 33.1473 30.0106C32.8709 29.7342 32.4961 29.5789 32.1053 29.5789ZM18.8421 28.1053C19.6238 28.1053 20.3735 28.4158 20.9262 28.9685C21.4789 29.5213 21.7895 30.2709 21.7895 31.0526C21.7895 31.8343 21.4789 32.584 20.9262 33.1367C20.3735 33.6895 19.6238 34 18.8421 34C18.0604 34 17.3107 33.6895 16.758 33.1367C16.2053 32.584 15.8947 31.8343 15.8947 31.0526C15.8947 30.2709 16.2053 29.5213 16.758 28.9685C17.3107 28.4158 18.0604 28.1053 18.8421 28.1053ZM18.8421 29.5789C18.4513 29.5789 18.0764 29.7342 17.8001 30.0106C17.5237 30.2869 17.3684 30.6618 17.3684 31.0526C17.3684 31.4435 17.5237 31.8183 17.8001 32.0947C18.0764 32.3711 18.4513 32.5263 18.8421 32.5263C19.233 32.5263 19.6078 32.3711 19.8842 32.0947C20.1605 31.8183 20.3158 31.4435 20.3158 31.0526C20.3158 30.6618 20.1605 30.2869 19.8842 30.0106C19.6078 29.7342 19.233 29.5789 18.8421 29.5789ZM35.0526 10.4211H14.8189L18.5768 19.2632H30.6316C31.1179 19.2632 31.5453 19.0274 31.8105 18.6737L36.2316 12.7789C36.4232 12.5284 36.5263 12.2189 36.5263 11.8947C36.5263 11.5039 36.3711 11.1291 36.0947 10.8527C35.8183 10.5763 35.4435 10.4211 35.0526 10.4211ZM30.6316 20.7368H18.6505L17.5158 23.0358L17.3684 23.6842C17.3684 24.0751 17.5237 24.4499 17.8001 24.7263C18.0764 25.0026 18.4513 25.1579 18.8421 25.1579H35.0526V26.6316H18.8421C18.0604 26.6316 17.3107 26.3211 16.758 25.7683C16.2053 25.2156 15.8947 24.4659 15.8947 23.6842C15.8943 23.1842 16.0211 22.6923 16.2632 22.2547L17.3242 20.0884L11.9747 7.47368H10V6H12.9474L14.2 8.94737H35.0526C35.8343 8.94737 36.584 9.25789 37.1367 9.81063C37.6895 10.3634 38 11.113 38 11.8947C38 12.6316 37.7495 13.2505 37.3368 13.7516L33.0484 19.4842C32.5179 20.2358 31.6337 20.7368 30.6316 20.7368Z" fill="#5A28D9"/>
</svg>
