<svg width="97" height="99" viewBox="0 0 97 99" fill="none" xmlns="http://www.w3.org/2000/svg">
<path d="M41.0725 0.560502C27.6058 2.97131 14.5544 11.8039 7.13534 23.5284C-2.29011 38.4238 -2.38597 59.0725 6.89737 74.2975C15.1019 87.7508 27.7529 96.0915 42.7879 97.9582C58.3871 99.8948 72.7452 95.1228 83.8373 84.3141C92.03 76.3307 97.9658 64.7795 95.7114 61.2058C92.8793 56.7163 90.1716 57.8851 86.4549 65.2008C81.2575 75.4335 75.4856 81.2667 66.2174 85.6544C50.979 92.8692 33.0505 89.6562 20.9569 77.545C-1.33066 55.2229 9.09712 18.2182 39.9399 10.1819C54.7789 6.3155 72.9689 12.8769 81.0792 25.0226C85.3038 31.3494 86.5172 35.347 85.1112 38.3128C83.7423 41.2003 77.6745 44.0501 71.4603 44.7236L66.4024 45.2719L65.3782 41.4442C64.1228 36.7496 59.6653 32.065 55.3019 30.8533C53.5588 30.3689 48.4429 29.9712 43.934 29.9687L35.7354 29.9636V49.3039V68.6442L43.5136 68.6392C52.231 68.6341 56.7121 67.6629 60.3447 64.9923C62.848 63.1524 66.0072 57.965 66.0072 55.6955C66.0072 54.8386 67.2484 54.3063 70.0014 53.9843C86.8603 52.0074 94.598 46.2658 94.5964 35.7355C94.5955 30.7473 91.766 23.8655 87.1176 17.5488C84.0677 13.4041 75.6975 6.96129 70.2116 4.53366C61.4908 0.676536 49.5352 -0.953927 41.0725 0.560502Z" fill="#0A7A42"/>
<path d="M19.9268 37.6998C16.8677 40.7589 20.1413 43.4178 26.9659 43.4178H32.3719V40.0542V36.6907H26.6539C23.3274 36.6907 20.5138 37.1128 19.9268 37.6998Z" fill="#0A7A42"/>
<path d="M19.6174 57.2671C18.0416 60.7256 19.8285 61.9172 26.5883 61.9172H32.3719V58.5536V55.1901H26.4681C21.0049 55.1901 20.4928 55.3457 19.6174 57.2671Z" fill="#0A7A42"/>
</svg>
