<svg width="44" height="42" viewBox="0 0 44 42" fill="none" xmlns="http://www.w3.org/2000/svg">
<path d="M1 35.8208C1 33.2302 2.10625 30.7456 4.07538 28.9137C6.04451 27.0819 8.71523 26.0527 11.5 26.0527H32.5C35.2848 26.0527 37.9555 27.0819 39.9246 28.9137C41.8938 30.7456 43 33.2302 43 35.8208C43 37.1161 42.4469 38.3584 41.4623 39.2743C40.4777 40.1903 39.1424 40.7049 37.75 40.7049H6.25C4.85761 40.7049 3.52226 40.1903 2.53769 39.2743C1.55312 38.3584 1 37.1161 1 35.8208Z" stroke="#5A28D9" stroke-width="1.5" stroke-linejoin="round"/>
<path d="M22 16.2844C26.3492 16.2844 29.875 13.0045 29.875 8.95838C29.875 4.91231 26.3492 1.63232 22 1.63232C17.6508 1.63232 14.125 4.91231 14.125 8.95838C14.125 13.0045 17.6508 16.2844 22 16.2844Z" stroke="#5A28D9" stroke-width="1.5"/>
</svg>
