<svg width="47" height="42" viewBox="0 0 47 42" fill="none" xmlns="http://www.w3.org/2000/svg">
<path d="M40.6111 13.2071C40.538 13.1299 40.4465 13.0678 40.3431 13.0251C40.2397 12.9824 40.1269 12.9603 40.0127 12.9602H7.91797L6.61593 6.66307C6.58312 6.50532 6.48852 6.36267 6.34858 6.25991C6.20864 6.15715 6.03219 6.10077 5.84992 6.10059H1.02966C0.822882 6.10059 0.624572 6.17286 0.478358 6.3015C0.332143 6.43014 0.25 6.60462 0.25 6.78655C0.25 6.96847 0.332143 7.14295 0.478358 7.27159C0.624572 7.40024 0.822882 7.47251 1.02966 7.47251H5.1989L6.50288 13.7833L10.2862 32.095C10.4606 32.9319 10.9823 33.6818 11.75 34.1992C10.9458 34.6553 10.3198 35.3173 9.95656 36.0961C9.59331 36.8749 9.51022 37.733 9.71851 38.5546C9.92679 39.3763 10.4164 40.1219 11.1214 40.6911C11.8264 41.2603 12.7127 41.6256 13.661 41.7378C14.6093 41.8499 15.5739 41.7035 16.4246 41.3184C17.2754 40.9332 17.9715 40.3278 18.419 39.5837C18.8666 38.8396 19.044 37.9927 18.9274 37.1572C18.8108 36.3216 18.4058 35.5376 17.767 34.9109H29.5126C28.7985 35.6134 28.38 36.5103 28.3271 37.4517C28.2742 38.393 28.5902 39.3218 29.2222 40.0828C29.8542 40.8439 30.7639 41.391 31.7993 41.6328C32.8347 41.8746 33.9331 41.7964 34.9108 41.4113C35.8885 41.0261 36.6864 40.3575 37.1711 39.5169C37.6558 38.6764 37.7979 37.715 37.5737 36.7934C37.3495 35.8717 36.7726 35.0457 35.9394 34.4534C35.1061 33.861 34.067 33.5383 32.9958 33.539H14.1221C13.5747 33.5388 13.0447 33.3696 12.6244 33.0609C12.2041 32.7523 11.9202 32.3237 11.8221 31.8498L11.0425 28.0513H34.5746C35.4875 28.0514 36.3716 27.7696 37.0726 27.255C37.7736 26.7404 38.2471 26.0257 38.4105 25.2354L40.7807 13.7696C40.801 13.6707 40.7963 13.569 40.767 13.4718C40.7377 13.3746 40.6845 13.2842 40.6111 13.2071ZM17.4025 37.6547C17.4025 38.1974 17.2196 38.7279 16.877 39.1791C16.5343 39.6304 16.0472 39.9821 15.4774 40.1897C14.9075 40.3974 14.2804 40.4517 13.6755 40.3459C13.0705 40.24 12.5148 39.9787 12.0787 39.5949C11.6425 39.2112 11.3455 38.7223 11.2252 38.19C11.1048 37.6578 11.1666 37.1061 11.4026 36.6047C11.6387 36.1034 12.0384 35.6748 12.5513 35.3733C13.0641 35.0718 13.6671 34.9109 14.2839 34.9109C15.111 34.9109 15.9043 35.2 16.4891 35.7146C17.074 36.2291 17.4025 36.927 17.4025 37.6547ZM36.1144 37.6547C36.1144 38.1974 35.9315 38.7279 35.5888 39.1791C35.2461 39.6304 34.7591 39.9821 34.1892 40.1897C33.6194 40.3974 32.9923 40.4517 32.3873 40.3459C31.7824 40.24 31.2267 39.9787 30.7905 39.5949C30.3544 39.2112 30.0574 38.7223 29.937 38.19C29.8167 37.6578 29.8785 37.1061 30.1145 36.6047C30.3506 36.1034 30.7503 35.6748 31.2631 35.3733C31.776 35.0718 32.379 34.9109 32.9958 34.9109C33.8229 34.9109 34.6161 35.2 35.201 35.7146C35.7858 36.2291 36.1144 36.927 36.1144 37.6547ZM36.8765 24.9902C36.7784 25.4644 36.4942 25.8932 36.0735 26.2019C35.6528 26.5106 35.1224 26.6796 34.5746 26.6794H10.752L8.20059 14.3321H39.0791L36.8765 24.9902Z" fill="#5A28D9"/>
<ellipse cx="35.8545" cy="9.98793" rx="10.3955" ry="9.14613" fill="#0A7A42"/>
<path d="M35.504 15.9375C34.6624 15.9339 33.9433 15.712 33.3467 15.2716C32.7501 14.8313 32.2938 14.1903 31.9778 13.3487C31.6617 12.5071 31.5037 11.4932 31.5037 10.3071C31.5037 9.1246 31.6617 8.1143 31.9778 7.27623C32.2974 6.43817 32.7555 5.79896 33.3521 5.35862C33.9522 4.91828 34.6695 4.69811 35.504 4.69811C36.3386 4.69811 37.0541 4.92005 37.6507 5.36395C38.2473 5.80429 38.7036 6.44349 39.0197 7.28156C39.3393 8.11608 39.4991 9.1246 39.4991 10.3071C39.4991 11.4968 39.341 12.5124 39.025 13.354C38.7089 14.1921 38.2526 14.8331 37.656 15.2769C37.0594 15.7173 36.3421 15.9375 35.504 15.9375ZM35.504 14.5152C36.2427 14.5152 36.8197 14.1548 37.2352 13.4339C37.6543 12.713 37.8638 11.6708 37.8638 10.3071C37.8638 9.40159 37.7679 8.63632 37.5761 8.01132C37.3879 7.38277 37.1163 6.90692 36.7611 6.58376C36.4096 6.25706 35.9905 6.0937 35.504 6.0937C34.769 6.0937 34.1919 6.45592 33.7729 7.18035C33.3538 7.90478 33.1425 8.94704 33.139 10.3071C33.139 11.2162 33.2331 11.985 33.4213 12.6136C33.6131 13.2386 33.8847 13.7127 34.2363 14.0358C34.5878 14.3554 35.0104 14.5152 35.504 14.5152Z" fill="white"/>
</svg>
