<svg width="46" height="42" viewBox="0 0 46 42" fill="none" xmlns="http://www.w3.org/2000/svg">
<path d="M28.8413 10.2173C24.9276 10.2173 21.5543 11.9649 19.7143 14.86C17.8743 11.9649 14.501 10.2173 10.5873 10.2173C7.78041 10.2205 5.08945 11.2695 3.10468 13.1343C1.11991 14.9991 0.00338151 17.5274 0 20.1647C0 25.068 3.28571 30.1926 9.74762 35.3927C12.7314 37.778 15.9529 39.8876 19.3675 41.6922C19.474 41.7462 19.5932 41.7745 19.7143 41.7745C19.8354 41.7745 19.9546 41.7462 20.0611 41.6922C23.4757 39.8876 26.6972 37.778 29.681 35.3927C36.1429 30.1926 39.4286 25.068 39.4286 20.1647C39.4252 17.5274 38.3087 14.9991 36.3239 13.1343C34.3391 11.2695 31.6482 10.2205 28.8413 10.2173ZM19.7143 40.303C17.1587 38.9309 1.46032 30.124 1.46032 20.1647C1.46322 17.8912 2.42574 15.7116 4.13675 14.104C5.84776 12.4964 8.16756 11.5921 10.5873 11.5893C14.4407 11.5893 17.679 13.5291 19.0389 16.6505C19.0939 16.7763 19.1875 16.8839 19.3077 16.9597C19.428 17.0354 19.5695 17.0759 19.7143 17.0759C19.8591 17.0759 20.0006 17.0354 20.1208 16.9597C20.2411 16.8839 20.3347 16.7763 20.3897 16.6505C21.7496 13.5291 24.9879 11.5893 28.8413 11.5893C31.261 11.5921 33.5808 12.4964 35.2918 14.104C37.0028 15.7116 37.9654 17.8912 37.9683 20.1647C37.9683 30.112 22.2698 38.9378 19.7143 40.303Z" fill="#5A28D9"/>
<ellipse cx="36.2645" cy="9.98881" rx="9.73545" ry="9.14701" fill="#0A7A42"/>
<path d="M36.244 16.1645C35.4024 16.161 34.6833 15.939 34.0867 15.4987C33.4901 15.0583 33.0338 14.4173 32.7178 13.5757C32.4017 12.7341 32.2437 11.7203 32.2437 10.5342C32.2437 9.35165 32.4017 8.34135 32.7178 7.50328C33.0374 6.66522 33.4955 6.02601 34.092 5.58567C34.6922 5.14533 35.4095 4.92516 36.244 4.92516C37.0785 4.92516 37.7941 5.14711 38.3907 5.591C38.9873 6.03134 39.4436 6.67054 39.7597 7.50861C40.0793 8.34313 40.2391 9.35165 40.2391 10.5342C40.2391 11.7238 40.081 12.7394 39.765 13.5811C39.4489 14.4191 38.9926 15.0601 38.396 15.504C37.7994 15.9443 37.0821 16.1645 36.244 16.1645ZM36.244 14.7423C36.9827 14.7423 37.5597 14.3818 37.9752 13.661C38.3942 12.9401 38.6038 11.8978 38.6038 10.5342C38.6038 9.62864 38.5079 8.86337 38.3161 8.23837C38.1279 7.60982 37.8562 7.13397 37.5011 6.81081C37.1496 6.48411 36.7305 6.32076 36.244 6.32076C35.5089 6.32076 34.9319 6.68297 34.5129 7.4074C34.0938 8.13184 33.8825 9.17409 33.879 10.5342C33.879 11.4433 33.9731 12.2121 34.1613 12.8406C34.353 13.4656 34.6247 13.9397 34.9763 14.2629C35.3278 14.5825 35.7504 14.7423 36.244 14.7423Z" fill="white"/>
</svg>
