<svg width="90" height="90" viewBox="0 0 90 90" fill="none" xmlns="http://www.w3.org/2000/svg">
<path d="M44.1309 2.8125C29.1825 2.8125 17.0522 14.8388 16.8778 29.7534V29.7675C16.871 29.9634 16.871 30.1594 16.8778 30.3553C16.8862 30.7209 16.9116 31.2244 16.9706 31.8403C17.2105 35.6131 18.2343 39.2944 19.9767 42.6494C21.719 46.0043 24.1417 48.9591 27.09 51.3253C32.2537 57.1528 33.5306 62.3728 33.6769 64.1278V64.1447C33.6937 64.3284 33.7219 64.5094 33.7612 64.6875H33.75V69.7219L54.8437 65.5088V65.3681C55.0069 64.9838 55.1072 64.5759 55.1447 64.1447V64.125C55.305 62.1872 56.1572 57.0263 61.2 51.3534C64.164 48.9759 66.5964 46.003 68.3399 42.6269C70.0834 39.2507 71.0994 35.5464 71.3222 31.7531C71.3713 31.2191 71.4013 30.6834 71.4122 30.1472V29.8294C71.2237 14.8612 59.0962 2.8125 44.1309 2.8125ZM22.5028 29.8406C22.5621 24.1436 24.8669 18.7 28.9165 14.6925C32.9662 10.685 38.4336 8.43719 44.1309 8.4375C55.9912 8.4375 65.6297 17.9803 65.7872 29.8884V30.15C65.7872 30.2991 65.7703 30.6394 65.7141 31.3228L65.7084 31.3566V31.3931C65.5325 34.4407 64.7117 37.4162 63.3003 40.1231C61.889 42.8299 59.9192 45.2063 57.5212 47.0953L57.3328 47.2416L57.1725 47.4188C51.8625 53.3109 50.2172 58.9416 49.7109 62.2406H47.9334C48.06 57.9234 48.6337 49.8797 51.0778 47.1938C53.4966 45.2813 55.0997 42.3844 55.2966 39.0938C55.3247 38.7844 55.3247 38.5875 55.3247 38.4469V38.3344C55.295 35.3926 54.1056 32.5814 52.0148 30.5117C49.9241 28.442 47.101 27.2811 44.1591 27.2812C41.8447 27.2821 39.588 28.0039 37.7028 29.3463C35.8175 30.6888 34.3973 32.5852 33.6395 34.772C32.8817 36.9588 32.824 39.3273 33.4743 41.5484C34.1247 43.7696 35.4508 45.7329 37.2684 47.1656C39.6928 49.8741 40.2891 57.9234 40.4325 62.2406H39.0825C38.4525 58.8459 36.3656 53.2378 31.1231 47.3962L30.96 47.2163L30.7687 47.0672C28.3798 45.1857 26.4157 42.8203 25.0052 40.1263C23.5947 37.4323 22.7697 34.4706 22.5844 31.4353L22.5787 31.3847L22.5731 31.3313C22.5267 30.879 22.5023 30.4247 22.5 29.97V29.8884L22.5028 29.8406ZM44.1591 30.0938C48.7153 30.0938 52.4278 33.7781 52.4841 38.3344V38.5594C52.4841 38.6437 52.4841 38.7563 52.4559 38.925C52.3153 41.2875 51.1622 43.5094 49.3059 44.9719L49.1091 45.1125L48.9403 45.2812C45.8465 48.7125 45.1997 57.4313 45.0872 62.2125H43.2591C43.1184 57.4313 42.4434 48.7125 39.3497 45.2812L39.1809 45.1125L38.9841 44.9719C38.0551 44.2372 37.2935 43.3128 36.7503 42.2603C36.2071 41.2078 35.8948 40.0516 35.8341 38.8687C35.8341 38.8121 35.8285 38.7555 35.8172 38.7L35.8059 38.6156V38.3625C35.8903 33.8063 39.6309 30.0938 44.1591 30.0938ZM54.8437 68.3775L33.75 72.5906V75.3159L54.8437 70.8722V68.3775ZM33.75 78.75V78.1875L54.8437 73.7466V78.75C54.8437 79.4959 54.5474 80.2113 54.02 80.7387C53.4925 81.2662 52.7772 81.5625 52.0312 81.5625H48.8925C48.4171 82.4088 47.7267 83.1145 46.8911 83.6083C46.0555 84.1022 45.1043 84.3667 44.1337 84.375C43.1631 84.3667 42.212 84.1022 41.3764 83.6083C40.5408 83.1145 39.8504 82.4088 39.375 81.5625H36.5625C35.8166 81.5625 35.1012 81.2662 34.5738 80.7387C34.0463 80.2113 33.75 79.4959 33.75 78.75Z" fill="#5A28D9"/>
</svg>
