<svg width="35" height="35" viewBox="0 0 35 35" fill="none" xmlns="http://www.w3.org/2000/svg">
<path fill-rule="evenodd" clip-rule="evenodd" d="M5.33333 0.582886C4.11776 0.582886 2.95197 1.06577 2.09243 1.92531C1.23289 2.78485 0.75 3.95064 0.75 5.16622C0.75 6.38179 1.23289 7.54758 2.09243 8.40713C2.95197 9.26667 4.11776 9.74955 5.33333 9.74955C6.54891 9.74955 7.7147 9.26667 8.57424 8.40713C9.43378 7.54758 9.91667 6.38179 9.91667 5.16622C9.91667 3.95064 9.43378 2.78485 8.57424 1.92531C7.7147 1.06577 6.54891 0.582886 5.33333 0.582886ZM3.25 5.16622C3.25 4.61369 3.46949 4.08378 3.86019 3.69308C4.2509 3.30238 4.7808 3.08289 5.33333 3.08289C5.88587 3.08289 6.41577 3.30238 6.80647 3.69308C7.19717 4.08378 7.41667 4.61369 7.41667 5.16622C7.41667 5.71875 7.19717 6.24866 6.80647 6.63936C6.41577 7.03006 5.88587 7.24955 5.33333 7.24955C4.7808 7.24955 4.2509 7.03006 3.86019 6.63936C3.46949 6.24866 3.25 5.71875 3.25 5.16622ZM0.75 11.8329C0.75 11.5014 0.881696 11.1834 1.11612 10.949C1.35054 10.7146 1.66848 10.5829 2 10.5829H8.66667C8.99819 10.5829 9.31613 10.7146 9.55055 10.949C9.78497 11.1834 9.91667 11.5014 9.91667 11.8329V33.4996C9.91667 33.8311 9.78497 34.149 9.55055 34.3834C9.31613 34.6179 8.99819 34.7496 8.66667 34.7496H2C1.66848 34.7496 1.35054 34.6179 1.11612 34.3834C0.881696 34.149 0.75 33.8311 0.75 33.4996V11.8329ZM3.25 13.0829V32.2496H7.41667V13.0829H3.25ZM12.4167 11.8329C12.4167 11.5014 12.5484 11.1834 12.7828 10.949C13.0172 10.7146 13.3351 10.5829 13.6667 10.5829H20.3333C20.6649 10.5829 20.9828 10.7146 21.2172 10.949C21.4516 11.1834 21.5833 11.5014 21.5833 11.8329V12.5562L22.3083 12.2446C23.5584 11.7106 24.8845 11.3759 26.2383 11.2529C30.8633 10.8329 34.9167 14.4662 34.9167 19.1329V33.4996C34.9167 33.8311 34.785 34.149 34.5506 34.3834C34.3161 34.6179 33.9982 34.7496 33.6667 34.7496H27C26.6685 34.7496 26.3505 34.6179 26.1161 34.3834C25.8817 34.149 25.75 33.8311 25.75 33.4996V21.8329C25.75 21.2804 25.5305 20.7504 25.1398 20.3597C24.7491 19.969 24.2192 19.7496 23.6667 19.7496C23.1141 19.7496 22.5842 19.969 22.1935 20.3597C21.8028 20.7504 21.5833 21.2804 21.5833 21.8329V33.4996C21.5833 33.8311 21.4516 34.149 21.2172 34.3834C20.9828 34.6179 20.6649 34.7496 20.3333 34.7496H13.6667C13.3351 34.7496 13.0172 34.6179 12.7828 34.3834C12.5484 34.149 12.4167 33.8311 12.4167 33.4996V11.8329ZM14.9167 13.0829V32.2496H19.0833V21.8329C19.0833 20.6173 19.5662 19.4515 20.4258 18.592C21.2853 17.7324 22.4511 17.2496 23.6667 17.2496C24.8822 17.2496 26.048 17.7324 26.9076 18.592C27.7671 19.4515 28.25 20.6173 28.25 21.8329V32.2496H32.4167V19.1329C32.4167 15.9596 29.6483 13.4529 26.4667 13.7429C25.3736 13.8421 24.3028 14.112 23.2933 14.5429L20.8267 15.6012C20.6364 15.6829 20.4288 15.7161 20.2226 15.6978C20.0163 15.6794 19.8179 15.6101 19.645 15.4961C19.4722 15.3821 19.3304 15.2269 19.2323 15.0445C19.1343 14.8622 19.0831 14.6583 19.0833 14.4512V13.0829H14.9167Z" fill="#5A28D9" fill-opacity="0.8"/>
</svg>
