<svg width="230" height="75" viewBox="0 0 230 75" fill="none" xmlns="http://www.w3.org/2000/svg">
<path d="M99.9734 24.4238H106.933V26.5638H99.9734V24.4238ZM100.173 30.4238H108.073V32.6038H97.5734V18.6038H107.793V20.7838H100.173V30.4238ZM113.372 32.6038V18.6038H115.972V30.4038H123.292V32.6038H113.372ZM130.144 24.4238H137.104V26.5638H130.144V24.4238ZM130.344 30.4238H138.244V32.6038H127.744V18.6038H137.964V20.7838H130.344V30.4238ZM150.023 32.8038C148.956 32.8038 147.963 32.6304 147.043 32.2838C146.136 31.9238 145.343 31.4238 144.663 30.7838C143.996 30.1304 143.476 29.3638 143.103 28.4838C142.73 27.6038 142.543 26.6438 142.543 25.6038C142.543 24.5638 142.73 23.6038 143.103 22.7238C143.476 21.8438 144.003 21.0838 144.683 20.4438C145.363 19.7904 146.156 19.2904 147.063 18.9438C147.97 18.5838 148.963 18.4038 150.043 18.4038C151.19 18.4038 152.236 18.6038 153.183 19.0038C154.13 19.3904 154.93 19.9704 155.583 20.7438L153.903 22.3238C153.396 21.7771 152.83 21.3704 152.203 21.1038C151.576 20.8238 150.896 20.6838 150.163 20.6838C149.43 20.6838 148.756 20.8038 148.143 21.0438C147.543 21.2838 147.016 21.6238 146.563 22.0638C146.123 22.5038 145.776 23.0238 145.523 23.6238C145.283 24.2238 145.163 24.8838 145.163 25.6038C145.163 26.3238 145.283 26.9838 145.523 27.5838C145.776 28.1838 146.123 28.7038 146.563 29.1438C147.016 29.5838 147.543 29.9238 148.143 30.1638C148.756 30.4038 149.43 30.5238 150.163 30.5238C150.896 30.5238 151.576 30.3904 152.203 30.1238C152.83 29.8438 153.396 29.4238 153.903 28.8638L155.583 30.4638C154.93 31.2238 154.13 31.8038 153.183 32.2038C152.236 32.6038 151.183 32.8038 150.023 32.8038ZM163.158 32.6038V20.8038H158.518V18.6038H170.398V20.8038H165.758V32.6038H163.158ZM174.749 32.6038V18.6038H180.509C181.749 18.6038 182.809 18.8038 183.689 19.2038C184.582 19.6038 185.269 20.1771 185.749 20.9238C186.229 21.6704 186.469 22.5571 186.469 23.5838C186.469 24.6104 186.229 25.4971 185.749 26.2438C185.269 26.9771 184.582 27.5438 183.689 27.9438C182.809 28.3304 181.749 28.5238 180.509 28.5238H176.189L177.349 27.3438V32.6038H174.749ZM183.909 32.6038L180.369 27.5238H183.149L186.709 32.6038H183.909ZM177.349 27.6238L176.189 26.3838H180.389C181.536 26.3838 182.396 26.1371 182.969 25.6438C183.556 25.1504 183.849 24.4638 183.849 23.5838C183.849 22.6904 183.556 22.0038 182.969 21.5238C182.396 21.0438 181.536 20.8038 180.389 20.8038H176.189L177.349 19.5238V27.6238ZM191.778 32.6038V18.6038H194.378V32.6038H191.778ZM207.045 32.8038C205.978 32.8038 204.985 32.6304 204.065 32.2838C203.158 31.9238 202.365 31.4238 201.685 30.7838C201.018 30.1304 200.498 29.3638 200.125 28.4838C199.751 27.6038 199.565 26.6438 199.565 25.6038C199.565 24.5638 199.751 23.6038 200.125 22.7238C200.498 21.8438 201.025 21.0838 201.705 20.4438C202.385 19.7904 203.178 19.2904 204.085 18.9438C204.991 18.5838 205.985 18.4038 207.065 18.4038C208.211 18.4038 209.258 18.6038 210.205 19.0038C211.151 19.3904 211.951 19.9704 212.605 20.7438L210.925 22.3238C210.418 21.7771 209.851 21.3704 209.225 21.1038C208.598 20.8238 207.918 20.6838 207.185 20.6838C206.451 20.6838 205.778 20.8038 205.165 21.0438C204.565 21.2838 204.038 21.6238 203.585 22.0638C203.145 22.5038 202.798 23.0238 202.545 23.6238C202.305 24.2238 202.185 24.8838 202.185 25.6038C202.185 26.3238 202.305 26.9838 202.545 27.5838C202.798 28.1838 203.145 28.7038 203.585 29.1438C204.038 29.5838 204.565 29.9238 205.165 30.1638C205.778 30.4038 206.451 30.5238 207.185 30.5238C207.918 30.5238 208.598 30.3904 209.225 30.1238C209.851 29.8438 210.418 29.4238 210.925 28.8638L212.605 30.4638C211.951 31.2238 211.151 31.8038 210.205 32.2038C209.258 32.6038 208.205 32.8038 207.045 32.8038Z" fill="#1E1E1E"/>
<path d="M104.053 55.1579C102.987 55.1579 101.993 54.9846 101.073 54.6379C100.167 54.2779 99.3734 53.7779 98.6934 53.1379C98.0267 52.4846 97.5067 51.7179 97.1334 50.8379C96.76 49.9579 96.5734 48.9979 96.5734 47.9579C96.5734 46.9179 96.76 45.9579 97.1334 45.0779C97.5067 44.1979 98.0334 43.4379 98.7134 42.7979C99.3934 42.1446 100.187 41.6446 101.093 41.2979C102 40.9379 102.993 40.7579 104.073 40.7579C105.22 40.7579 106.267 40.9579 107.213 41.3579C108.16 41.7446 108.96 42.3246 109.613 43.0979L107.933 44.6779C107.427 44.1312 106.86 43.7246 106.233 43.4579C105.607 43.1779 104.927 43.0379 104.193 43.0379C103.46 43.0379 102.787 43.1579 102.173 43.3979C101.573 43.6379 101.047 43.9779 100.593 44.4179C100.153 44.8579 99.8067 45.3779 99.5534 45.9779C99.3134 46.5779 99.1934 47.2379 99.1934 47.9579C99.1934 48.6779 99.3134 49.3379 99.5534 49.9379C99.8067 50.5379 100.153 51.0579 100.593 51.4979C101.047 51.9379 101.573 52.2779 102.173 52.5179C102.787 52.7579 103.46 52.8779 104.193 52.8779C104.927 52.8779 105.607 52.7446 106.233 52.4779C106.86 52.1979 107.427 51.7779 107.933 51.2179L109.613 52.8179C108.96 53.5779 108.16 54.1579 107.213 54.5579C106.267 54.9579 105.213 55.1579 104.053 55.1579ZM120.772 55.1579C119.678 55.1579 118.672 54.9779 117.752 54.6179C116.832 54.2579 116.032 53.7579 115.352 53.1179C114.672 52.4646 114.145 51.7046 113.772 50.8379C113.398 49.9579 113.212 48.9979 113.212 47.9579C113.212 46.9179 113.398 45.9646 113.772 45.0979C114.145 44.2179 114.672 43.4579 115.352 42.8179C116.032 42.1646 116.832 41.6579 117.752 41.2979C118.672 40.9379 119.672 40.7579 120.752 40.7579C121.845 40.7579 122.845 40.9379 123.752 41.2979C124.672 41.6579 125.472 42.1646 126.152 42.8179C126.832 43.4579 127.358 44.2179 127.732 45.0979C128.105 45.9646 128.292 46.9179 128.292 47.9579C128.292 48.9979 128.105 49.9579 127.732 50.8379C127.358 51.7179 126.832 52.4779 126.152 53.1179C125.472 53.7579 124.672 54.2579 123.752 54.6179C122.845 54.9779 121.852 55.1579 120.772 55.1579ZM120.752 52.8779C121.458 52.8779 122.112 52.7579 122.712 52.5179C123.312 52.2779 123.832 51.9379 124.272 51.4979C124.712 51.0446 125.052 50.5246 125.292 49.9379C125.545 49.3379 125.672 48.6779 125.672 47.9579C125.672 47.2379 125.545 46.5846 125.292 45.9979C125.052 45.3979 124.712 44.8779 124.272 44.4379C123.832 43.9846 123.312 43.6379 122.712 43.3979C122.112 43.1579 121.458 43.0379 120.752 43.0379C120.045 43.0379 119.392 43.1579 118.792 43.3979C118.205 43.6379 117.685 43.9846 117.232 44.4379C116.792 44.8779 116.445 45.3979 116.192 45.9979C115.952 46.5846 115.832 47.2379 115.832 47.9579C115.832 48.6646 115.952 49.3179 116.192 49.9179C116.445 50.5179 116.792 51.0446 117.232 51.4979C117.672 51.9379 118.192 52.2779 118.792 52.5179C119.392 52.7579 120.045 52.8779 120.752 52.8779ZM133.448 54.9579V40.9579H135.588L141.708 51.1779H140.588L146.608 40.9579H148.748L148.768 54.9579H146.308L146.288 44.8179H146.808L141.688 53.3579H140.528L135.328 44.8179H135.928V54.9579H133.448ZM154.949 54.9579V40.9579H160.709C161.949 40.9579 163.009 41.1579 163.889 41.5579C164.782 41.9579 165.469 42.5312 165.949 43.2779C166.429 44.0246 166.669 44.9112 166.669 45.9379C166.669 46.9646 166.429 47.8512 165.949 48.5979C165.469 49.3446 164.782 49.9179 163.889 50.3179C163.009 50.7179 161.949 50.9179 160.709 50.9179H156.389L157.549 49.6979V54.9579H154.949ZM157.549 49.9779L156.389 48.7179H160.589C161.736 48.7179 162.596 48.4779 163.169 47.9979C163.756 47.5046 164.049 46.8179 164.049 45.9379C164.049 45.0446 163.756 44.3579 163.169 43.8779C162.596 43.3979 161.736 43.1579 160.589 43.1579H156.389L157.549 41.8779V49.9779ZM168.982 54.9579L175.282 40.9579H177.842L184.162 54.9579H181.442L176.022 42.3379H177.062L171.662 54.9579H168.982ZM171.882 51.7179L172.582 49.6779H180.142L180.842 51.7179H171.882ZM188.343 54.9579V40.9579H190.483L199.263 51.7379H198.203V40.9579H200.783V54.9579H198.643L189.863 44.1779H190.923V54.9579H188.343ZM210.374 54.9579V49.4179L210.954 51.0179L204.874 40.9579H207.654L212.534 49.0579H210.974L215.894 40.9579H218.454L212.374 51.0179L212.974 49.4179V54.9579H210.374Z" fill="#1E1E1E"/>
<path fill-rule="evenodd" clip-rule="evenodd" d="M32.762 1.16033C20.5478 3.61569 9.69319 11.2983 4.24227 21.3462C-5.83787 39.928 2.58597 61.2739 23.7811 70.8567C26.4244 72.0519 29.2137 72.8423 32.8045 73.4145C40.0885 74.5753 47.62 74.224 54.6451 71.9763C65.143 68.6175 73.1419 62.9556 78.0028 54.6684C81.653 48.4458 81.4356 45.5093 77.3256 45.5093C76.0118 45.5093 75.1758 46.4186 73.084 50.1252C69.6856 56.1469 62.7128 62.4205 56.3622 65.1713C42.7942 71.0481 28.8379 68.7752 17.3239 58.8134C9.75541 52.266 7.04139 46.5251 7.02494 37.0342C6.98704 14.9998 33.4335 0.335286 56.1898 9.77259C64.2754 13.1257 72.7886 21.8988 72.8044 26.8944C72.8165 30.9386 68.5592 33.3403 59.5368 34.3779L55.9181 34.7939L55.0484 32.2045C52.963 25.994 47.8347 23.2069 38.4833 23.1999C35.1399 23.1979 30.7568 23.2129 30.3227 23.4706L30.3226 41.5723L30.3227 52.0618L38.4461 51.7396C48.5884 51.3108 51.3761 49.9587 54.8489 43.7839C56.4337 40.9661 56.0926 41.1046 64.0501 40.0492C68.9675 39.3964 75.5012 36.1396 77.6188 33.2848C84.7074 23.7282 70.4536 6.02447 52.3101 1.85074C45.7535 0.342305 38.1636 0.074308 32.762 1.16033ZM16.5937 29.1883C16.3792 29.6873 16.1561 31.0364 16.5937 31.7658C17.2624 32.8805 18.4725 32.7476 22.0597 32.7476H26.3256V30.5143V28.2809H21.6549C18.2765 28.2809 16.8755 28.5324 16.5937 29.1883ZM17.1716 43.0846C15.7606 44.3435 16.1747 46.0919 17.9797 46.4964C18.8965 46.7012 21.0685 46.7785 22.807 46.6681L26.3256 46.4964L26.4164 42.3189H22.2227C19.9149 42.3189 17.6436 42.6634 17.1716 43.0846Z" fill="#1E1E1E"/>
</svg>
