<svg width="20" height="21" viewBox="0 0 20 21" fill="none" xmlns="http://www.w3.org/2000/svg">
<path d="M17.5 18L13.8808 14.3809M13.8808 14.3809C14.4999 13.7618 14.991 13.0269 15.326 12.218C15.661 11.4091 15.8335 10.5422 15.8335 9.66672C15.8335 8.79121 15.6611 7.92429 15.326 7.11543C14.991 6.30657 14.4999 5.57162 13.8808 4.95255C13.2617 4.33348 12.5268 3.8424 11.7179 3.50736C10.9091 3.17232 10.0422 2.99988 9.16666 2.99988C8.29115 2.99988 7.42422 3.17232 6.61537 3.50736C5.80651 3.8424 5.07156 4.33348 4.45249 4.95255C3.20221 6.20282 2.49982 7.89856 2.49982 9.66672C2.49982 11.4349 3.20221 13.1306 4.45249 14.3809C5.70276 15.6312 7.3985 16.3336 9.16666 16.3336C10.9348 16.3336 12.6305 15.6312 13.8808 14.3809Z" stroke="#5A28D9" stroke-width="2" stroke-linecap="round" stroke-linejoin="round"/>
</svg>
