<svg width="90" height="90" viewBox="0 0 90 90" fill="none" xmlns="http://www.w3.org/2000/svg">
<path d="M18.7686 33.7613C19.7632 33.7613 20.717 34.1563 21.4203 34.8596C22.1236 35.5629 22.5186 36.5167 22.5186 37.5113C28.4104 37.5026 34.1323 39.4848 38.7561 43.1363H46.8936C51.8886 43.1363 56.3811 45.3113 59.4711 48.7613H71.2686C74.8134 48.7603 78.2858 49.7641 81.2831 51.6564C84.2805 53.5487 86.6801 56.2519 88.2036 59.4525C79.3349 71.1525 64.9761 78.7613 48.7686 78.7613C38.3061 78.7613 29.4561 76.5 22.2899 72.5437C22.0266 73.2671 21.5471 73.8919 20.9165 74.3334C20.2859 74.7748 19.5347 75.0115 18.7649 75.0113H7.51489C6.52033 75.0113 5.5665 74.6162 4.86324 73.9129C4.15998 73.2096 3.76489 72.2558 3.76489 71.2613V37.5113C3.76489 36.5167 4.15998 35.5629 4.86324 34.8596C5.5665 34.1563 6.52033 33.7613 7.51489 33.7613H18.7686ZM22.5186 45.0113V63.8438L22.6874 63.9637C29.4149 68.6888 38.1861 71.2613 48.7686 71.2613C60.0336 71.2613 70.5111 66.9263 78.1499 59.5238L78.6486 59.025L78.1986 58.65C76.4272 57.2644 74.2811 56.4414 72.0374 56.2875L71.2686 56.2613H63.3486C63.6236 57.4688 63.7636 58.7188 63.7686 60.0113V63.7613H30.0186V56.2613L55.4811 56.2575L55.3536 55.9613C54.6348 54.46 53.5292 53.1772 52.1505 52.2446C50.7718 51.3121 49.1696 50.7634 47.5086 50.655L46.8936 50.6363H35.9061C34.1608 48.8556 32.0778 47.441 29.779 46.4751C27.4803 45.5093 25.012 45.0116 22.5186 45.0113ZM15.0186 41.2613H11.2686V67.5113H15.0186V41.2613ZM67.5186 18.7613C70.5023 18.7613 73.3638 19.9465 75.4736 22.0563C77.5834 24.1661 78.7686 27.0276 78.7686 30.0113C78.7686 32.9949 77.5834 35.8564 75.4736 37.9662C73.3638 40.076 70.5023 41.2613 67.5186 41.2613C64.535 41.2613 61.6735 40.076 59.5637 37.9662C57.4539 35.8564 56.2686 32.9949 56.2686 30.0113C56.2686 27.0276 57.4539 24.1661 59.5637 22.0563C61.6735 19.9465 64.535 18.7613 67.5186 18.7613ZM67.5186 26.2613C66.5241 26.2613 65.5703 26.6563 64.867 27.3596C64.1637 28.0629 63.7686 29.0167 63.7686 30.0113C63.7686 31.0058 64.1637 31.9596 64.867 32.6629C65.5703 33.3662 66.5241 33.7613 67.5186 33.7613C68.5132 33.7613 69.467 33.3662 70.1703 32.6629C70.8736 31.9596 71.2686 31.0058 71.2686 30.0113C71.2686 29.0167 70.8736 28.0629 70.1703 27.3596C69.467 26.6563 68.5132 26.2613 67.5186 26.2613ZM41.2686 7.51125C44.2523 7.51125 47.1138 8.69652 49.2236 10.8063C51.3334 12.9161 52.5186 15.7776 52.5186 18.7613C52.5186 21.7449 51.3334 24.6064 49.2236 26.7162C47.1138 28.826 44.2523 30.0113 41.2686 30.0113C38.285 30.0113 35.4235 28.826 33.3137 26.7162C31.2039 24.6064 30.0186 21.7449 30.0186 18.7613C30.0186 15.7776 31.2039 12.9161 33.3137 10.8063C35.4235 8.69652 38.285 7.51125 41.2686 7.51125ZM41.2686 15.0113C40.2741 15.0113 39.3203 15.4063 38.617 16.1096C37.9137 16.8129 37.5186 17.7667 37.5186 18.7613C37.5186 19.7558 37.9137 20.7096 38.617 21.4129C39.3203 22.1162 40.2741 22.5113 41.2686 22.5113C42.2632 22.5113 43.217 22.1162 43.9203 21.4129C44.6236 20.7096 45.0186 19.7558 45.0186 18.7613C45.0186 17.7667 44.6236 16.8129 43.9203 16.1096C43.217 15.4063 42.2632 15.0113 41.2686 15.0113Z" fill="#5A28D9"/>
</svg>
