<svg width="74" height="74" viewBox="0 0 74 74" fill="none" xmlns="http://www.w3.org/2000/svg">
<path d="M51.0625 0.524689L49.2175 2.54688C45.0859 7.09469 41.68 9.12813 38.845 10.4584C36.01 11.7859 33.6278 12.1825 31.2878 13.9741C28.7931 15.8866 25.1678 19.5541 23.6406 26.1016C20.3669 26.8159 17.9706 28.0703 16.0806 29.7044C14.2131 31.3188 12.8069 33.1553 11.0744 35.155C11.0603 35.1775 11.0828 35.2197 11.0744 35.2422C8.58813 38.0997 6.41406 41.1766 2.19531 42.8022L0.4375 43.5053V73.5625H54.0522C57.1262 73.3966 59.2581 71.2675 60.5547 69.1666C61.8484 67.0684 62.5656 64.7959 62.9284 62.9284C63.8622 58.1697 65.5638 44.47 65.5638 44.47L65.6537 44.2084V43.9441C65.5638 42.0428 64.7819 40.4284 63.8059 38.9322L66.97 29.53L71.9819 21.97L73.3881 19.9478L71.5403 18.28L53.0847 2.2825L51.0625 0.524689ZM51.2397 8.25906L65.9153 21.0053L62.0481 26.7147L61.7866 26.9819L61.6966 27.4206L59.1484 34.9778C57.8181 34.4294 56.4484 34.0441 54.9297 34.1003H54.7525L37 34.1875H34.1875V45.0859C33.7938 48.1516 32.0894 49.3384 29.9688 50.185C29.2656 50.4691 29.1784 50.3144 28.5625 50.4466V34.1031C28.1012 23.6772 31.8137 20.6763 34.7162 18.4572C35.5178 17.8412 37.8662 17.1297 41.2188 15.5575C44.02 14.2384 47.5019 11.8731 51.2397 8.25906ZM23.1147 32.4297C23.1034 33.0681 22.9037 33.5181 22.9375 34.1875V56.6875H25.75C25.75 56.6875 28.7594 56.6538 31.9909 55.3684C35.2225 54.0831 39.1206 51.0737 39.8125 45.7891V39.8125L54.9297 39.7253H55.0169C56.2519 39.6562 57.4638 40.08 58.3866 40.9037C59.3094 41.7274 59.8677 42.8836 59.9388 44.1184C59.9275 44.1634 59.7981 45.2069 59.7644 45.4375H48.25V51.0625H59.0612C58.7631 53.2366 58.4903 54.6006 58.1809 56.6875H48.25V62.3125H57.3034C56.9712 63.6732 56.4375 64.9767 55.72 66.1797C54.9522 67.4313 54.2912 67.9037 53.7006 67.9375H6.0625V46.9309C10.6216 44.5122 13.4566 41.0331 15.2903 38.935C17.1916 36.7581 18.4966 35.11 19.7734 34.0131C20.6087 33.2988 21.9166 32.8909 23.1147 32.4297Z" fill="#5A28D9"/>
</svg>
