<svg width="35" height="35" viewBox="0 0 35 35" fill="none" xmlns="http://www.w3.org/2000/svg">
<path fill-rule="evenodd" clip-rule="evenodd" d="M27.2268 24.7523L31.2445 28.77L30.0063 30.0067L5.61426 5.61458L6.84947 4.375L11.013 8.53854C13.0255 7.73354 15.213 7.29167 17.4997 7.29167C24.5113 7.29167 30.5838 11.445 33.5413 17.5C32.1146 20.4332 29.9357 22.9356 27.2268 24.7523ZM12.3751 9.90208L14.8018 12.3288C15.9027 11.7532 17.1586 11.5441 18.3867 11.7321C19.6147 11.92 20.7507 12.495 21.6291 13.3735C22.5076 14.2519 23.0826 15.3879 23.2705 16.6159C23.4584 17.8439 23.2494 19.0999 22.6738 20.2008L25.9624 23.4894C28.2578 22.031 30.1974 19.985 31.5697 17.5015C28.7084 12.3229 23.3826 9.04167 17.4997 9.04167C15.7556 9.04276 14.0239 9.33352 12.3751 9.90208ZM21.3468 18.8738C21.607 18.1456 21.6551 17.3586 21.4856 16.6041C21.316 15.8497 20.9357 15.1589 20.389 14.6122C19.8422 14.0654 19.1514 13.6851 18.397 13.5156C17.6426 13.346 16.8555 13.3941 16.1274 13.6544L21.3468 18.8738ZM23.9863 26.4629C21.9738 27.2679 19.7863 27.7098 17.4997 27.7098C10.488 27.7098 4.41551 23.5565 1.45801 17.5015C2.88473 14.5683 5.06361 12.0659 7.77259 10.2492L9.03697 11.5135C6.69561 13.0075 4.76741 15.066 3.42967 17.5C6.29092 22.6771 11.6168 25.9583 17.4997 25.9583C19.2437 25.9572 20.9755 25.6665 22.6243 25.0979L23.9863 26.4629ZM12.327 14.8021L13.6526 16.1292C13.3924 16.8573 13.3442 17.6444 13.5138 18.3988C13.6833 19.1532 14.0636 19.844 14.6104 20.3908C15.1571 20.9375 15.8479 21.3178 16.6023 21.4874C17.3568 21.6569 18.1438 21.6088 18.872 21.3485L20.199 22.6727C19.0981 23.2483 17.8422 23.4573 16.6141 23.2694C15.3861 23.0815 14.2501 22.5064 13.3717 21.628C12.4932 20.7495 11.9182 19.6136 11.7303 18.3855C11.5424 17.1575 11.7514 15.903 12.327 14.8021Z" fill="#0A7A42"/>
</svg>
