<svg width="50" height="50" viewBox="0 0 50 50" fill="none" xmlns="http://www.w3.org/2000/svg">
<g clip-path="url(#clip0_368_210)">
<path d="M16.6667 50C16.0764 50 15.5819 49.8 15.1833 49.4C14.7847 49 14.5847 48.5056 14.5833 47.9167C14.5819 47.3278 14.7819 46.8333 15.1833 46.4333C15.5847 46.0333 16.0792 45.8333 16.6667 45.8333C17.2542 45.8333 17.7493 46.0333 18.1521 46.4333C18.5549 46.8333 18.7542 47.3278 18.75 47.9167C18.7458 48.5056 18.5458 49.0007 18.15 49.4021C17.7542 49.8035 17.2597 50.0028 16.6667 50ZM25 50C24.4097 50 23.9153 49.8 23.5167 49.4C23.1181 49 22.9181 48.5056 22.9167 47.9167C22.9153 47.3278 23.1153 46.8333 23.5167 46.4333C23.9181 46.0333 24.4125 45.8333 25 45.8333C25.5875 45.8333 26.0826 46.0333 26.4854 46.4333C26.8882 46.8333 27.0875 47.3278 27.0833 47.9167C27.0792 48.5056 26.8792 49.0007 26.4833 49.4021C26.0875 49.8035 25.5931 50.0028 25 50ZM33.3333 50C32.7431 50 32.2486 49.8 31.85 49.4C31.4514 49 31.2514 48.5056 31.25 47.9167C31.2486 47.3278 31.4486 46.8333 31.85 46.4333C32.2514 46.0333 32.7458 45.8333 33.3333 45.8333C33.9208 45.8333 34.416 46.0333 34.8187 46.4333C35.2215 46.8333 35.4208 47.3278 35.4167 47.9167C35.4125 48.5056 35.2125 49.0007 34.8167 49.4021C34.4208 49.8035 33.9264 50.0028 33.3333 50ZM16.6667 41.6667C15.5208 41.6667 14.5403 41.259 13.725 40.4438C12.9097 39.6285 12.5014 38.6472 12.5 37.5V4.16667C12.5 3.02083 12.9083 2.04028 13.725 1.225C14.5417 0.409722 15.5222 0.00138889 16.6667 0H33.3333C34.4792 0 35.4604 0.408333 36.2771 1.225C37.0938 2.04167 37.5014 3.02222 37.5 4.16667V37.5C37.5 38.6458 37.0924 39.6271 36.2771 40.4438C35.4618 41.2604 34.4806 41.6681 33.3333 41.6667H16.6667ZM16.6667 37.5H33.3333V35.4167H16.6667V37.5ZM16.6667 31.25H33.3333V10.4167H16.6667V31.25ZM16.6667 6.25H33.3333V4.16667H16.6667V6.25Z" fill="black"/>
</g>
<defs>
<clipPath id="clip0_368_210">
<rect width="50" height="50" fill="white"/>
</clipPath>
</defs>
</svg>
