<svg width="220" height="220" viewBox="0 0 220 220" fill="none" xmlns="http://www.w3.org/2000/svg">
<circle cx="110" cy="110" r="110" fill="#0A7A42" fill-opacity="0.25"/>
<g clip-path="url(#clip0_1_20)">
<mask id="mask0_1_20" style="mask-type:luminance" maskUnits="userSpaceOnUse" x="65" y="65" width="90" height="90">
<path d="M65 65H155V155H65V65Z" fill="white"/>
</mask>
<g mask="url(#mask0_1_20)">
<path fill-rule="evenodd" clip-rule="evenodd" d="M130.306 118.933C129.189 118.374 123.71 115.681 122.69 115.306C121.67 114.931 120.927 114.751 120.181 115.869C119.439 116.983 117.305 119.491 116.656 120.234C116.004 120.98 115.355 121.07 114.241 120.515C113.127 119.953 109.535 118.779 105.279 114.984C101.967 112.029 99.7287 108.38 99.08 107.263C98.4312 106.149 99.0087 105.545 99.5675 104.99C100.07 104.491 100.681 103.689 101.24 103.04C101.799 102.391 101.982 101.923 102.354 101.176C102.729 100.434 102.541 99.7851 102.26 99.2264C101.982 98.6676 99.755 93.1814 98.825 90.9501C97.9212 88.7789 97.0025 89.0751 96.32 89.0376C95.6675 89.0076 94.925 89.0001 94.1825 89.0001C93.44 89.0001 92.2325 89.2776 91.2125 90.3951C90.1887 91.5089 87.3125 94.2051 87.3125 99.6914C87.3125 105.174 91.3025 110.473 91.8612 111.219C92.42 111.965 99.7175 123.219 110.896 128.045C113.559 129.193 115.632 129.879 117.249 130.389C119.919 131.24 122.349 131.12 124.269 130.831C126.406 130.513 130.861 128.135 131.791 125.533C132.721 122.93 132.717 120.699 132.44 120.234C132.162 119.769 131.42 119.491 130.302 118.933M109.97 146.694H109.955C103.315 146.695 96.7976 144.91 91.085 141.526L89.735 140.724L75.7025 144.406L79.4487 130.726L78.5675 129.324C74.8553 123.415 72.8909 116.577 72.9012 109.599C72.9087 89.1614 89.5362 72.5339 109.985 72.5339C114.855 72.5191 119.68 73.4725 124.179 75.3388C128.678 77.2051 132.76 79.947 136.19 83.4051C139.642 86.8412 142.378 90.928 144.239 95.4287C146.101 99.9294 147.051 104.755 147.035 109.625C147.027 130.063 130.4 146.694 109.97 146.694ZM141.515 78.0801C137.383 73.9224 132.467 70.6255 127.053 68.3803C121.638 66.1351 115.832 64.9862 109.97 65.0001C85.3925 65.0001 65.3825 85.0064 65.375 109.595C65.3629 117.421 67.4157 125.111 71.3262 131.889L65 155L88.64 148.798C95.1806 152.358 102.508 154.224 109.955 154.228H109.974C134.551 154.228 154.561 134.221 154.569 109.629C154.587 103.769 153.443 97.9629 151.203 92.5476C148.963 87.1324 145.672 82.215 141.519 78.0801" fill="white"/>
</g>
</g>
<defs>
<clipPath id="clip0_1_20">
<rect width="90" height="90" fill="white" transform="translate(65 65)"/>
</clipPath>
</defs>
</svg>
