<svg width="34" height="35" viewBox="0 0 34 35" fill="none" xmlns="http://www.w3.org/2000/svg">
<path d="M28.7498 5.68285C27.2216 4.1397 25.4015 2.91613 23.3957 2.08346C21.3898 1.25078 19.2383 0.825658 17.0665 0.832853C7.9665 0.832853 0.549837 8.24952 0.549837 17.3495C0.549837 20.2662 1.3165 23.0995 2.74984 25.5995L0.416504 34.1662L9.1665 31.8662C11.5832 33.1829 14.2998 33.8829 17.0665 33.8829C26.1665 33.8829 33.5832 26.4662 33.5832 17.3662C33.5832 12.9495 31.8665 8.79952 28.7498 5.68285ZM17.0665 31.0829C14.5998 31.0829 12.1832 30.4162 10.0665 29.1662L9.5665 28.8662L4.3665 30.2329L5.74984 25.1662L5.4165 24.6495C4.04575 22.4613 3.31805 19.9316 3.3165 17.3495C3.3165 9.78285 9.48317 3.61619 17.0498 3.61619C20.7165 3.61619 24.1665 5.04952 26.7498 7.64952C28.0292 8.92263 29.043 10.4371 29.7325 12.1051C30.4221 13.773 30.7735 15.5613 30.7665 17.3662C30.7998 24.9329 24.6332 31.0829 17.0665 31.0829ZM24.5998 20.8162C24.1832 20.6162 22.1498 19.6162 21.7832 19.4662C21.3998 19.3329 21.1332 19.2662 20.8498 19.6662C20.5665 20.0829 19.7832 21.0162 19.5498 21.2829C19.3165 21.5662 19.0665 21.5995 18.6498 21.3829C18.2332 21.1829 16.8998 20.7329 15.3332 19.3329C14.0998 18.2329 13.2832 16.8829 13.0332 16.4662C12.7998 16.0495 12.9998 15.8329 13.2165 15.6162C13.3998 15.4329 13.6332 15.1329 13.8332 14.8995C14.0332 14.6662 14.1165 14.4829 14.2498 14.2162C14.3832 13.9329 14.3165 13.6995 14.2165 13.4995C14.1165 13.2995 13.2832 11.2662 12.9498 10.4329C12.6165 9.63285 12.2665 9.73285 12.0165 9.71619H11.2165C10.9332 9.71619 10.4998 9.81619 10.1165 10.2329C9.74984 10.6495 8.68317 11.6495 8.68317 13.6829C8.68317 15.7162 10.1665 17.6829 10.3665 17.9495C10.5665 18.2329 13.2832 22.3995 17.4165 24.1829C18.3998 24.6162 19.1665 24.8662 19.7665 25.0495C20.7498 25.3662 21.6498 25.3162 22.3665 25.2162C23.1665 25.0995 24.8165 24.2162 25.1498 23.2495C25.4998 22.2829 25.4998 21.4662 25.3832 21.2829C25.2665 21.0995 25.0165 21.0162 24.5998 20.8162Z" fill="#5A28D9" fill-opacity="0.8"/>
</svg>
